<?xml version="1.0" encoding="utf-8"?>
<!-- Generator: Adobe Illustrator 29.2.1, SVG Export Plug-In . SVG Version: 9.03 Build 55982)  -->
<svg version="1.1" baseProfile="tiny" id="logo" xmlns="http://www.w3.org/2000/svg" xmlns:xlink="http://www.w3.org/1999/xlink"
	 x="0px" y="0px" viewBox="0 0 597 50" overflow="visible" xml:space="preserve">
<g>
	<path fill="#606061" d="M86.8,33.7h2.4v4.7c-1.3,1-3,1.5-4.7,1.5c-3.6,0-6.3-2.5-6.3-6s2.7-6,6.4-6c2,0,3.7,0.7,4.8,2l-1.7,1.6
		c-0.8-0.9-1.8-1.3-3-1.3c-2.2,0-3.8,1.5-3.8,3.7c0,2.2,1.5,3.7,3.7,3.7c0.7,0,1.4-0.1,2.1-0.5V33.7z"/>
	<path fill="#606061" d="M100.2,35.9h-6.7c0.2,1.1,1.2,1.8,2.5,1.8c0.9,0,1.6-0.3,2.2-0.9l1.4,1.5c-0.8,0.9-2.1,1.4-3.7,1.4
		c-3.1,0-5.1-1.9-5.1-4.6c0-2.7,2-4.6,4.7-4.6c2.6,0,4.6,1.7,4.6,4.6C100.2,35.4,100.2,35.7,100.2,35.9z M93.4,34.4h4.4
		c-0.2-1.1-1-1.8-2.2-1.8C94.4,32.6,93.6,33.3,93.4,34.4z"/>
	<path fill="#606061" d="M111,34.6v5.1h-2.6V35c0-1.4-0.7-2.1-1.8-2.1c-1.2,0-2.1,0.8-2.1,2.4v4.4h-2.6v-8.9h2.5v1
		c0.7-0.8,1.7-1.2,2.9-1.2C109.4,30.6,111,31.9,111,34.6z"/>
	<path fill="#606061" d="M122.1,35.9h-6.7c0.2,1.1,1.2,1.8,2.5,1.8c0.9,0,1.6-0.3,2.2-0.9l1.4,1.5c-0.8,0.9-2.1,1.4-3.7,1.4
		c-3.1,0-5.1-1.9-5.1-4.6c0-2.7,2-4.6,4.7-4.6c2.6,0,4.6,1.7,4.6,4.6C122.1,35.4,122.1,35.7,122.1,35.9z M115.3,34.4h4.4
		c-0.2-1.1-1-1.8-2.2-1.8C116.3,32.6,115.5,33.3,115.3,34.4z"/>
	<path fill="#606061" d="M129.3,30.6V33c-0.2,0-0.4,0-0.6,0c-1.4,0-2.4,0.8-2.4,2.5v4.2h-2.6v-8.9h2.5V32
		C126.9,31.1,128,30.6,129.3,30.6z"/>
	<path fill="#606061" d="M138.7,34.6v5.1h-2.4v-1.1c-0.5,0.8-1.4,1.2-2.7,1.2c-2.1,0-3.3-1.2-3.3-2.7c0-1.6,1.1-2.7,3.8-2.7h2
		c0-1.1-0.7-1.7-2-1.7c-0.9,0-1.9,0.3-2.6,0.8l-0.9-1.8c1-0.7,2.4-1.1,3.8-1.1C137.1,30.6,138.7,31.9,138.7,34.6z M136.1,36.8v-0.9
		h-1.8c-1.2,0-1.6,0.4-1.6,1c0,0.6,0.5,1.1,1.5,1.1C135.1,38.1,135.8,37.7,136.1,36.8z"/>
	<path fill="#606061" d="M141,27.4h2.6v12.2H141V27.4z"/>
	<path fill="#606061" d="M150.1,33.9c0-3.5,2.7-6,6.3-6c2,0,3.7,0.7,4.8,2l-1.7,1.6c-0.8-0.9-1.7-1.4-2.9-1.4
		c-2.2,0-3.7,1.5-3.7,3.7s1.5,3.7,3.7,3.7c1.2,0,2.1-0.5,2.9-1.4l1.7,1.6c-1.1,1.3-2.8,2.1-4.8,2.1
		C152.8,39.9,150.1,37.4,150.1,33.9z"/>
	<path fill="#606061" d="M161.8,35.2c0-2.7,2.1-4.6,4.9-4.6c2.8,0,4.9,1.9,4.9,4.6s-2,4.6-4.9,4.6C163.8,39.8,161.8,37.9,161.8,35.2
		z M168.9,35.2c0-1.5-1-2.5-2.3-2.5c-1.3,0-2.3,0.9-2.3,2.5s1,2.5,2.3,2.5C167.9,37.7,168.9,36.8,168.9,35.2z"/>
	<path fill="#606061" d="M188.2,34.6v5.1h-2.6V35c0-1.4-0.6-2.1-1.7-2.1c-1.2,0-2,0.7-2,2.3v4.5h-2.6V35c0-1.4-0.6-2.1-1.7-2.1
		c-1.1,0-1.9,0.7-1.9,2.3v4.5h-2.6v-8.9h2.5v1c0.7-0.8,1.6-1.2,2.8-1.2c1.2,0,2.3,0.5,2.9,1.5c0.7-0.9,1.9-1.5,3.2-1.5
		C186.7,30.6,188.2,31.9,188.2,34.6z"/>
	<path fill="#606061" d="M205.5,34.6v5.1H203V35c0-1.4-0.6-2.1-1.7-2.1c-1.2,0-2,0.7-2,2.3v4.5h-2.6V35c0-1.4-0.6-2.1-1.7-2.1
		c-1.1,0-1.9,0.7-1.9,2.3v4.5h-2.6v-8.9h2.5v1c0.7-0.8,1.6-1.2,2.8-1.2c1.2,0,2.3,0.5,2.9,1.5c0.7-0.9,1.9-1.5,3.2-1.5
		C204,30.6,205.5,31.9,205.5,34.6z"/>
	<path fill="#606061" d="M207.3,35.2c0-2.7,2.1-4.6,4.9-4.6c2.8,0,4.9,1.9,4.9,4.6s-2,4.6-4.9,4.6C209.4,39.8,207.3,37.9,207.3,35.2
		z M214.4,35.2c0-1.5-1-2.5-2.3-2.5c-1.3,0-2.3,0.9-2.3,2.5s1,2.5,2.3,2.5C213.5,37.7,214.4,36.8,214.4,35.2z"/>
	<path fill="#606061" d="M227.8,34.6v5.1h-2.6V35c0-1.4-0.7-2.1-1.8-2.1c-1.2,0-2.1,0.8-2.1,2.4v4.4h-2.6v-8.9h2.5v1
		c0.7-0.8,1.7-1.2,2.9-1.2C226.2,30.6,227.8,31.9,227.8,34.6z"/>
	<path fill="#606061" d="M229.3,38.8l0.9-1.8c0.8,0.5,2,0.9,3.1,0.9c1.2,0,1.6-0.3,1.6-0.8c0-1.5-5.4,0-5.4-3.5
		c0-1.7,1.5-2.9,4.1-2.9c1.2,0,2.6,0.3,3.4,0.8l-0.9,1.8c-0.9-0.5-1.7-0.7-2.6-0.7c-1.2,0-1.6,0.4-1.6,0.8c0,1.5,5.4,0,5.4,3.5
		c0,1.6-1.5,2.8-4.2,2.8C231.6,39.8,230.1,39.4,229.3,38.8z"/>
</g>
<g id="NCI_00000150814634692651135570000001075460970655601816_">
	<path fill="#BB0E3D" d="M84.9,10.2h1.9v8.7h-1.9l-4.1-5.4v5.4h-1.9v-8.7h1.8l4.3,5.6V10.2z"/>
	<path fill="#BB0E3D" d="M95.2,18.9L94.4,17h-3.6l-0.8,1.9h-2.1l3.8-8.7h1.9l3.8,8.7L95.2,18.9L95.2,18.9z M92.6,12.8l-1.1,2.5h2.2
		L92.6,12.8z"/>
	<path fill="#BB0E3D" d="M101.3,11.8v7h-1.9v-7h-2.5v-1.7h6.9v1.7H101.3z"/>
	<path fill="#BB0E3D" d="M105.2,10.2h1.9v8.7h-1.9V10.2z"/>
	<path fill="#BB0E3D" d="M116.6,17.7c-0.9,0.9-2,1.3-3.2,1.3s-2.4-0.4-3.2-1.3c-0.9-0.9-1.3-1.9-1.3-3.2s0.4-2.3,1.3-3.2
		c0.9-0.9,2-1.3,3.2-1.3s2.4,0.4,3.2,1.3c0.9,0.9,1.3,1.9,1.3,3.2S117.4,16.8,116.6,17.7z M115.9,14.5c0-0.8-0.2-1.4-0.7-2
		c-0.5-0.5-1.1-0.8-1.8-0.8c-0.7,0-1.3,0.3-1.8,0.8c-0.5,0.5-0.7,1.2-0.7,2c0,0.8,0.2,1.4,0.7,2c0.5,0.5,1.1,0.8,1.8,0.8
		c0.7,0,1.3-0.3,1.8-0.8C115.7,15.9,115.9,15.2,115.9,14.5z"/>
	<path fill="#BB0E3D" d="M125.6,10.2h1.9v8.7h-1.9l-4.1-5.4v5.4h-1.9v-8.7h1.8l4.3,5.6V10.2z"/>
	<path fill="#BB0E3D" d="M135.9,18.9l-0.8-1.9h-3.6l-0.8,1.9h-2.1l3.8-8.7h1.9l3.8,8.7L135.9,18.9L135.9,18.9z M133.3,12.8l-1.1,2.5
		h2.2L133.3,12.8z"/>
	<path fill="#BB0E3D" d="M138.9,18.9v-8.7h1.9v7h3.7v1.7L138.9,18.9L138.9,18.9z"/>
	<path fill="#BB0E3D" d="M153.3,17.1c1,0,1.7-0.4,2.3-1.1l1.2,1.3c-1,1.1-2.1,1.7-3.5,1.7c-1.3,0-2.4-0.4-3.3-1.3
		c-0.9-0.8-1.3-1.9-1.3-3.2c0-1.3,0.4-2.4,1.3-3.2c0.9-0.9,2-1.3,3.2-1.3c1.4,0,2.6,0.5,3.6,1.6l-1.2,1.4c-0.6-0.8-1.4-1.1-2.3-1.1
		c-0.7,0-1.4,0.2-1.9,0.7c-0.5,0.5-0.8,1.1-0.8,1.9c0,0.8,0.2,1.5,0.7,1.9C152,16.9,152.6,17.1,153.3,17.1z"/>
	<path fill="#BB0E3D" d="M164.5,18.9l-0.8-1.9h-3.6l-0.8,1.9h-2.1l3.8-8.7h1.9l3.8,8.7L164.5,18.9L164.5,18.9z M161.9,12.8l-1.1,2.5
		h2.2L161.9,12.8z"/>
	<path fill="#BB0E3D" d="M173.7,10.2h1.9v8.7h-1.9l-4.1-5.4v5.4h-1.9v-8.7h1.8l4.3,5.6V10.2z"/>
	<path fill="#BB0E3D" d="M181.7,17.1c1,0,1.7-0.4,2.3-1.1l1.2,1.3c-1,1.1-2.1,1.7-3.5,1.7s-2.4-0.4-3.3-1.3
		c-0.9-0.8-1.3-1.9-1.3-3.2c0-1.3,0.4-2.4,1.3-3.2c0.9-0.9,2-1.3,3.2-1.3c1.4,0,2.6,0.5,3.6,1.6l-1.2,1.4c-0.6-0.8-1.4-1.1-2.3-1.1
		c-0.7,0-1.4,0.2-1.9,0.7c-0.5,0.5-0.8,1.1-0.8,1.9c0,0.8,0.2,1.5,0.7,1.9C180.5,16.9,181,17.1,181.7,17.1z"/>
	<path fill="#BB0E3D" d="M193.1,10.2v1.7h-4.3v1.8h3.9v1.7h-3.9v1.8h4.5v1.7h-6.4v-8.7H193.1z"/>
	<path fill="#BB0E3D" d="M202,13.1c0,1.4-0.6,2.3-1.7,2.7l2.2,3.1h-2.4l-1.9-2.8h-1.3v2.8H195v-8.7h3.3c1.4,0,2.3,0.2,2.9,0.7
		S202,12,202,13.1z M199.7,14.1c0.2-0.2,0.4-0.6,0.4-1c0-0.5-0.1-0.8-0.4-1c-0.2-0.2-0.7-0.3-1.3-0.3h-1.5v2.6h1.4
		C199,14.4,199.5,14.3,199.7,14.1z"/>
	<path fill="#BB0E3D" d="M207.3,10.2h1.9v8.7h-1.9V10.2z"/>
	<path fill="#BB0E3D" d="M217.5,10.2h1.9v8.7h-1.9l-4.1-5.4v5.4h-1.9v-8.7h1.8l4.3,5.6V10.2z"/>
	<path fill="#BB0E3D" d="M223.6,11.9c-0.2,0.2-0.3,0.4-0.3,0.6s0.1,0.5,0.3,0.6c0.2,0.1,0.8,0.3,1.6,0.5c0.8,0.2,1.5,0.5,1.9,0.9
		c0.5,0.4,0.7,1,0.7,1.8c0,0.8-0.3,1.4-0.9,1.9c-0.6,0.5-1.4,0.7-2.3,0.7c-1.4,0-2.6-0.5-3.7-1.5l1.2-1.4c0.9,0.8,1.8,1.2,2.6,1.2
		c0.4,0,0.6-0.1,0.8-0.2c0.2-0.2,0.3-0.4,0.3-0.6c0-0.3-0.1-0.5-0.3-0.6c-0.2-0.2-0.6-0.3-1.3-0.5c-1-0.2-1.8-0.6-2.2-0.9
		s-0.7-1-0.7-1.8s0.3-1.5,0.9-1.9c0.6-0.4,1.3-0.7,2.2-0.7c0.6,0,1.2,0.1,1.7,0.3c0.6,0.2,1.1,0.5,1.5,0.8l-1,1.4
		c-0.8-0.6-1.5-0.9-2.3-0.9C224,11.7,223.8,11.7,223.6,11.9z"/>
	<path fill="#BB0E3D" d="M233.1,11.8v7h-1.9v-7h-2.5v-1.7h6.9v1.7H233.1z"/>
	<path fill="#BB0E3D" d="M237,10.2h1.9v8.7H237V10.2z"/>
	<path fill="#BB0E3D" d="M244.7,11.8v7h-1.9v-7h-2.5v-1.7h6.9v1.7H244.7z"/>
	<path fill="#BB0E3D" d="M250.9,16.6c0.3,0.4,0.8,0.6,1.3,0.6c0.5,0,1-0.2,1.3-0.6c0.3-0.4,0.5-1,0.5-1.6v-4.8h1.9V15
		c0,1.3-0.3,2.2-1,2.9c-0.7,0.7-1.6,1-2.7,1c-1.1,0-2-0.3-2.7-1s-1.1-1.6-1.1-2.9v-4.9h1.9V15C250.4,15.7,250.6,16.2,250.9,16.6z"/>
	<path fill="#BB0E3D" d="M261.6,11.8v7h-1.9v-7h-2.5v-1.7h6.9v1.7H261.6z"/>
	<path fill="#BB0E3D" d="M271.8,10.2v1.7h-4.3v1.8h3.9v1.7h-3.9v1.8h4.5v1.7h-6.4v-8.7H271.8z"/>
</g>
<g id="Luggage_Tag">
	<path fill="#BA1F40" d="M57.7,6c-0.9-1.3-2.4-2.2-3.9-2.2h-3.6l12,21.2l-12,21.2h3.6c1.7,0,3.2-0.9,3.9-2.2l10.5-18.9L57.7,6z"/>
	<path fill="#606061" d="M58.9,24.9L47.2,3.8H4.7C2,3.8,0.1,5.9,0.1,8.4v33.3c0,2.5,2,4.6,4.6,4.6h42.5L58.9,24.9z"/>
	<rect x="25.2" y="15.6" fill="#FFFFFF" width="3.2" height="18.8"/>
	<polygon fill="#FFFFFF" points="18.9,15.6 18.9,29.3 10.2,15.6 7.2,15.6 7.2,34.4 10.2,34.4 10.2,20.6 18.9,34.4 22,34.4 22,15.6 	
		"/>
	<polygon fill="#FFFFFF" points="43.2,15.6 43.2,23.4 34.5,23.4 34.5,15.6 31.4,15.6 31.4,34.4 34.5,34.4 34.5,26.5 43.2,26.5 
		43.2,34.4 46.4,34.4 46.4,15.6 	"/>
</g>
</svg>
